<svg width="48" height="48" viewBox="0 0 48 48" fill="none" xmlns="http://www.w3.org/2000/svg">
<path fill-rule="evenodd" clip-rule="evenodd" d="M8.0235 19.7834C8.00793 19.9264 8 20.0711 8 20.2168V33.9998C8 36.2089 9.79086 37.9998 12 37.9998H36C38.2091 37.9998 40 36.2089 40 33.9998V20.2168C40 20.0711 39.9921 19.9264 39.9765 19.7834L26.915 27.9468C25.1315 29.0615 22.8685 29.0615 21.085 27.9468L8.0235 19.7834ZM9.44844 17.1362L22.675 25.4028C23.4857 25.9095 24.5143 25.9095 25.325 25.4028L38.5516 17.1362C38.4158 17.0238 38.2718 16.9197 38.12 16.8248L26.12 9.3248C24.8229 8.51413 23.1771 8.51413 21.88 9.3248L9.88 16.8248C9.72824 16.9197 9.5842 17.0238 9.44844 17.1362Z" fill="#FDFDFF"/>
</svg>
