<svg width="48" height="48" viewBox="0 0 48 48" fill="none" xmlns="http://www.w3.org/2000/svg">
<path fill-rule="evenodd" clip-rule="evenodd" d="M12 8C9.79086 8 8 9.79086 8 12V36C8 38.2091 9.79086 40 12 40H36C38.2091 40 40 38.2091 40 36V12C40 9.79086 38.2091 8 36 8H12ZM14 20V34H18V20H14ZM13.5 16C13.5 14.6193 14.6193 13.5 16 13.5C17.3807 13.5 18.5 14.6193 18.5 16C18.5 17.3807 17.3807 18.5 16 18.5C14.6193 18.5 13.5 17.3807 13.5 16ZM27 24C25.3431 24 24 25.3431 24 27V34H20V20H24V22C24 22 25 20 28 20C31 20 34 22 34 27V34H30V28C30 25 28.6569 24 27 24Z" fill="#FDFDFF"/>
</svg>
