<svg width="48" height="48" viewBox="0 0 48 48" fill="none" xmlns="http://www.w3.org/2000/svg">
<g id="Frame 67">
<path id="Subtract" fill-rule="evenodd" clip-rule="evenodd" d="M30 39.9109C36.4281 37.4856 41 31.2767 41 24C41 14.6112 33.3888 7 24 7C14.6112 7 7 14.6112 7 24C7 31.2767 11.5719 37.4856 18 39.9109V35C18 33.2045 19.889 32.322 21.5471 31.8932C15.3784 31.3184 13 28.452 13 24C13 22.2527 13.3664 20.7496 14.1845 19.5335C13.8501 17.74 14.0326 15.7662 14.2426 15C15.5892 15 16.9358 15.5744 18.2824 16.7232C19.8051 16.249 21.695 16 24 16C26.305 16 28.1949 16.249 29.7176 16.7232C31.0642 15.5744 32.4108 15 33.7574 15C33.9674 15.7662 34.1499 17.74 33.8155 19.5335C34.6336 20.7496 35 22.2527 35 24C35 29.3144 32.6464 31.4907 26.5496 31.9187C28.1836 32.3566 30 33.2393 30 35V39.9109Z" fill="#1D1D1F"/>
</g>
</svg>
