<svg width="49" height="48" viewBox="0 0 49 48" fill="none" xmlns="http://www.w3.org/2000/svg">
<g id="Frame 69">
<path id="Subtract" fill-rule="evenodd" clip-rule="evenodd" d="M8.3333 20C8.3333 9 14.3333 8 24.3333 8C38.3333 8 40.3333 11 40.3333 24C40.3333 39 17.3333 33 17.3333 33C17.3333 33.05 17.3308 33.115 17.3278 33.193C17.2708 34.675 17.0333 40.85 30.3333 38V41C8.24335 45.8022 8.29174 32.1557 8.33016 21.323C8.33174 20.8767 8.3333 20.4352 8.3333 20ZM20.3333 18C19.2287 18 18.3333 18.8954 18.3333 20V28H14.3333V20C14.3333 16.6863 17.0195 14 20.3333 14C21.87 14 23.2717 14.5777 24.3333 15.5278C25.3948 14.5777 26.7965 14 28.3333 14C31.647 14 34.3333 16.6863 34.3333 20V28H30.3333V20C30.3333 18.8954 29.4378 18 28.3333 18C27.2287 18 26.3333 18.8954 26.3333 20V24H22.3333V20C22.3333 18.8954 21.4378 18 20.3333 18Z" fill="#1D1D1F"/>
</g>
</svg>
