<svg width="110" height="38" viewBox="0 0 110 38" fill="none" xmlns="http://www.w3.org/2000/svg">
<path id="Vector 675" d="M108.418 5.05877C109.555 4.27548 109.842 2.71876 109.059 1.58174C108.275 0.44471 106.719 0.157946 105.582 0.941231L108.418 5.05877ZM1.85921 12.7755C0.630627 13.4055 0.145415 14.9122 0.775456 16.1408L11.0426 36.1617C11.6726 37.3903 13.1793 37.8755 14.4079 37.2454C15.6365 36.6154 16.1217 35.1087 15.4917 33.8801L6.36534 16.0838L24.1617 6.95742C25.3903 6.32738 25.8755 4.82067 25.2454 3.59208C24.6154 2.3635 23.1087 1.87829 21.8801 2.50833L1.85921 12.7755ZM4.75464 18.1644C6.07691 18.5618 7.47101 17.8121 7.86844 16.4898C8.26586 15.1675 7.51612 13.7734 6.19385 13.376L4.75464 18.1644ZM15.9527 15.8936C14.6031 15.6024 13.2729 16.4604 12.9816 17.81C12.6904 19.1597 13.5484 20.4899 14.898 20.7811L15.9527 15.8936ZM20.0427 21.7828C21.4031 22.0191 22.6974 21.1078 22.9337 19.7475C23.1699 18.3871 22.2587 17.0928 20.8983 16.8566L20.0427 21.7828ZM30.8871 18.1721C29.5119 18.0484 28.2968 19.0628 28.1731 20.438C28.0493 21.8131 29.0638 23.0282 30.4389 23.152L30.8871 18.1721ZM35.6726 23.5141C37.0517 23.5809 38.2238 22.517 38.2906 21.1379C38.3574 19.7588 37.2935 18.5867 35.9144 18.5199L35.6726 23.5141ZM45.9922 18.5908C44.6123 18.638 43.532 19.795 43.5793 21.1749C43.6266 22.5548 44.7835 23.6351 46.1634 23.5878L45.9922 18.5908ZM51.4005 23.3006C52.7773 23.1968 53.8092 21.9965 53.7054 20.6197C53.6015 19.2429 52.4012 18.2109 51.0244 18.3148L51.4005 23.3006ZM61.0263 17.1499C59.6624 17.3649 58.7311 18.6449 58.9461 20.0088C59.1611 21.3726 60.4411 22.3039 61.805 22.0889L61.0263 17.1499ZM66.9683 21.1682C68.3225 20.8987 69.2017 19.5825 68.9322 18.2283C68.6627 16.8742 67.3464 15.9949 65.9923 16.2644L66.9683 21.1682ZM75.7982 13.9041C74.4697 14.2801 73.6975 15.6619 74.0735 16.9904C74.4495 18.3189 75.8313 19.0911 77.1598 18.7151L75.7982 13.9041ZM82.1776 17.1874C83.4902 16.7592 84.2072 15.348 83.779 14.0353C83.3508 12.7227 81.9396 12.0057 80.627 12.4339L82.1776 17.1874ZM90.0861 8.92541C88.812 9.45741 88.2104 10.9215 88.7423 12.1956C89.2743 13.4698 90.7385 14.0714 92.0126 13.5394L90.0861 8.92541ZM96.813 11.4163C98.0636 10.8311 98.603 9.34295 98.0179 8.09237C97.4327 6.8418 95.9445 6.30237 94.694 6.88754L96.813 11.4163ZM103.551 2.21994C102.366 2.93012 101.982 4.46571 102.693 5.64977C103.403 6.83383 104.938 7.21799 106.122 6.50781L103.551 2.21994ZM2.23367 17.3797C3.07675 17.6512 3.9171 17.9127 4.75464 18.1644L6.19385 13.376C5.38751 13.1336 4.57831 12.8818 3.76633 12.6203L2.23367 17.3797ZM14.898 20.7811C16.6277 21.1544 18.3429 21.4876 20.0427 21.7828L20.8983 16.8566C19.2647 16.5728 17.6159 16.2526 15.9527 15.8936L14.898 20.7811ZM30.4389 23.152C32.2041 23.3108 33.949 23.4306 35.6726 23.5141L35.9144 18.5199C34.2588 18.4398 32.5827 18.3247 30.8871 18.1721L30.4389 23.152ZM46.1634 23.5878C47.9376 23.527 49.6837 23.4301 51.4005 23.3006L51.0244 18.3148C49.3746 18.4392 47.6968 18.5324 45.9922 18.5908L46.1634 23.5878ZM61.805 22.0889C63.5664 21.8112 65.2882 21.5027 66.9683 21.1682L65.9923 16.2644C64.376 16.5861 62.7201 16.8829 61.0263 17.1499L61.805 22.0889ZM77.1598 18.7151C78.8947 18.2242 80.5682 17.7123 82.1776 17.1874L80.627 12.4339C79.0783 12.9391 77.4678 13.4316 75.7982 13.9041L77.1598 18.7151ZM92.0126 13.5394C93.7375 12.8191 95.3399 12.1056 96.813 11.4163L94.694 6.88754C93.2817 7.54836 91.7435 8.23334 90.0861 8.92541L92.0126 13.5394ZM106.122 6.50781C106.857 6.06716 107.421 5.71168 107.806 5.46302C107.999 5.33868 108.147 5.24103 108.249 5.17276C108.301 5.13862 108.34 5.11183 108.369 5.09272C108.383 5.08317 108.394 5.07553 108.402 5.06986C108.406 5.06702 108.41 5.06468 108.412 5.06283C108.414 5.0619 108.415 5.0611 108.416 5.06042C108.416 5.06009 108.417 5.05978 108.417 5.0595C108.417 5.05936 108.418 5.05923 108.418 5.05911C108.418 5.05905 108.418 5.05897 108.418 5.05893C108.418 5.05885 108.418 5.05877 107 3C105.582 0.941231 105.582 0.941153 105.582 0.941077C105.582 0.941054 105.582 0.94098 105.582 0.940934C105.582 0.940843 105.582 0.94076 105.583 0.940685C105.583 0.940533 105.583 0.940414 105.583 0.940325C105.583 0.940147 105.583 0.940093 105.583 0.940162C105.583 0.940302 105.582 0.940934 105.581 0.942055C105.577 0.944297 105.571 0.948492 105.562 0.954599C105.544 0.966813 105.515 0.986671 105.474 1.01384C105.393 1.06818 105.266 1.15175 105.095 1.26189C104.754 1.48217 104.236 1.80864 103.551 2.21994L106.122 6.50781Z" fill="#008799"/>
</svg>
