<svg width="25" height="8" viewBox="0 0 25 8" fill="none" xmlns="http://www.w3.org/2000/svg">
<g clip-path="url(#clip0_209_2)">
<path fill-rule="evenodd" clip-rule="evenodd" d="M5.43188 4.59858C4.73686 3.914 2.79366 2 0 2V0C3.66719 0 6.16411 2.50031 6.83156 3.16867C6.87716 3.21432 6.91422 3.25143 6.94253 3.27861C6.9784 3.31305 7.02031 3.35432 7.06812 3.40142C7.76314 4.086 9.70634 6 12.5 6C15.2937 6 17.2369 4.086 17.9319 3.40142C17.9797 3.35432 18.0216 3.31305 18.0575 3.27861C18.0858 3.25143 18.1228 3.21433 18.1684 3.16867C18.8359 2.50031 21.3328 0 25 0V2C22.2063 2 20.2631 3.914 19.5681 4.59858C19.5203 4.64568 19.4784 4.68695 19.4425 4.72139C19.4142 4.74857 19.3772 4.78567 19.3316 4.83133C18.6641 5.49969 16.1672 8 12.5 8C8.83281 8 6.33589 5.49969 5.66844 4.83133C5.62284 4.78568 5.58578 4.74857 5.55747 4.72139C5.5216 4.68695 5.47969 4.64568 5.43188 4.59858Z" fill="#888888"/>
</g>
<defs>
<clipPath id="clip0_209_2">
<rect width="25" height="8" fill="white"/>
</clipPath>
</defs>
</svg>
