<svg width="49" height="48" viewBox="0 0 49 48" fill="none" xmlns="http://www.w3.org/2000/svg">
<g id="Frame 70">
<path id="Subtract" fill-rule="evenodd" clip-rule="evenodd" d="M12.6666 8C10.4575 8 8.66663 9.79086 8.66663 12V36C8.66663 38.2091 10.4575 40 12.6666 40H36.6666C38.8758 40 40.6666 38.2091 40.6666 36V12C40.6666 9.79086 38.8758 8 36.6666 8H12.6666ZM14.6666 20V34H18.6666V20H14.6666ZM14.1666 16C14.1666 14.6193 15.2859 13.5 16.6666 13.5C18.0473 13.5 19.1666 14.6193 19.1666 16C19.1666 17.3807 18.0473 18.5 16.6666 18.5C15.2859 18.5 14.1666 17.3807 14.1666 16ZM27.6666 24C26.0098 24 24.6666 25.3431 24.6666 27V34H20.6666V20H24.6666V22C24.6666 22 25.6666 20 28.6666 20C31.6666 20 34.6666 22 34.6666 27V34H30.6666V28C30.6666 25 29.3235 24 27.6666 24Z" fill="#1D1D1F"/>
</g>
</svg>
