<svg width="1000" height="30" viewBox="0 0 1000 30" fill="none" xmlns="http://www.w3.org/2000/svg">
<g clip-path="url(#clip0_193_1491)">
<path fill-rule="evenodd" clip-rule="evenodd" d="M0 10C11.042 10 18.6595 16.2627 21.377 18.4968L21.3772 18.497C21.568 18.6538 21.7346 18.7908 21.8765 18.9043C21.9929 18.9974 22.144 19.1233 22.329 19.2774C25.0635 21.5547 35.2044 30 50 30C64.7956 30 74.9365 21.5547 77.671 19.2774C77.856 19.1233 78.0071 18.9974 78.1235 18.9043C78.2654 18.7908 78.4319 18.6539 78.6226 18.4971L78.623 18.4968C81.3405 16.2627 88.958 10 100 10C111.042 10 118.66 16.2627 121.377 18.4968L121.377 18.4971C121.568 18.6539 121.735 18.7908 121.877 18.9043C121.993 18.9974 122.144 19.1233 122.329 19.2774C125.064 21.5547 135.204 30 150 30C164.796 30 174.936 21.5547 177.671 19.2774C177.856 19.1233 178.007 18.9974 178.123 18.9043C178.265 18.7908 178.432 18.6539 178.623 18.4971L178.623 18.4968C181.34 16.2627 188.958 10 200 10C211.042 10 218.66 16.2627 221.377 18.4968L221.378 18.4974C221.568 18.6541 221.735 18.7909 221.877 18.9043C221.993 18.9974 222.144 19.1233 222.329 19.2774C225.064 21.5547 235.204 30 250 30C264.796 30 274.937 21.5546 277.671 19.2773C277.856 19.1233 278.007 18.9974 278.123 18.9043C278.265 18.7907 278.432 18.6537 278.623 18.4968C281.341 16.2626 288.958 10 300 10C311.042 10 318.659 16.2626 321.377 18.4968L321.378 18.4973C321.568 18.654 321.735 18.7909 321.877 18.9043C321.993 18.9974 322.144 19.1233 322.329 19.2773C325.063 21.5546 335.204 30 350 30C364.796 30 374.937 21.5546 377.671 19.2773C377.856 19.1233 378.007 18.9974 378.123 18.9043C378.265 18.7909 378.432 18.654 378.622 18.4973L378.623 18.4968C381.341 16.2626 388.958 10 400 10C411.042 10 418.659 16.2626 421.377 18.4968C421.568 18.6537 421.735 18.7907 421.877 18.9043C421.993 18.9974 422.144 19.1233 422.329 19.2773C425.063 21.5546 435.204 30 450 30C464.796 30 474.937 21.5546 477.671 19.2773C477.856 19.1233 478.007 18.9974 478.123 18.9043C478.265 18.7909 478.432 18.654 478.622 18.4973L478.623 18.4968C481.341 16.2626 488.958 10 500 10C511.042 10 518.659 16.2626 521.377 18.4968L521.378 18.4973C521.568 18.654 521.735 18.7909 521.877 18.9043C521.993 18.9974 522.144 19.1233 522.329 19.2773C525.063 21.5546 535.204 30 550 30C564.796 30 574.937 21.5546 577.671 19.2773C577.856 19.1233 578.007 18.9974 578.123 18.9043C578.265 18.7908 578.432 18.6539 578.623 18.4971L578.623 18.4968C581.341 16.2626 588.958 10 600 10C611.042 10 618.659 16.2626 621.377 18.4968C621.568 18.6537 621.734 18.7907 621.877 18.9043C621.993 18.9974 622.144 19.1233 622.329 19.2773C625.063 21.5546 635.204 30 650 30C664.796 30 674.937 21.5546 677.671 19.2773C677.856 19.1233 678.007 18.9974 678.123 18.9043C678.265 18.7908 678.432 18.6539 678.623 18.4971L678.623 18.4968C681.341 16.2626 688.958 10 700 10C711.042 10 718.659 16.2626 721.377 18.4968C721.568 18.6537 721.734 18.7907 721.877 18.9043C721.993 18.9974 722.144 19.1233 722.329 19.2773C725.063 21.5546 735.204 30 750 30C764.796 30 774.937 21.5546 777.671 19.2773C777.856 19.1233 778.007 18.9974 778.123 18.9043C778.265 18.7908 778.432 18.6539 778.623 18.4971L778.623 18.4968C781.341 16.2626 788.958 10 800 10C811.042 10 818.659 16.2626 821.377 18.4968C821.568 18.6537 821.734 18.7907 821.877 18.9043C821.993 18.9974 822.144 19.1233 822.329 19.2773C825.063 21.5546 835.204 30 850 30C864.796 30 874.937 21.5546 877.671 19.2773C877.856 19.1233 878.007 18.9974 878.123 18.9043C878.214 18.832 878.314 18.7502 878.425 18.6598L878.623 18.4968C881.341 16.2626 888.958 10 900 10C911.042 10 918.659 16.2626 921.377 18.4968C921.568 18.6537 921.734 18.7907 921.877 18.9043C921.993 18.9974 922.144 19.1233 922.329 19.2773C925.063 21.5546 935.204 30 950 30C964.796 30 974.937 21.5546 977.671 19.2773C977.856 19.1233 978.007 18.9974 978.123 18.9043C978.265 18.7908 978.432 18.6539 978.623 18.4971L978.623 18.4968C981.341 16.2626 988.958 10 1000 10V0C985.204 0 975.063 8.44538 972.329 10.7227C972.144 10.8767 971.993 11.0026 971.877 11.0957C971.734 11.2093 971.568 11.3463 971.377 11.5032C968.659 13.7374 961.042 20 950 20C938.958 20 931.341 13.7374 928.623 11.5032C928.432 11.3463 928.266 11.2093 928.123 11.0957C928.007 11.0026 927.856 10.8767 927.671 10.7227C924.937 8.44538 914.796 0 900 0C885.204 0 875.063 8.44538 872.329 10.7227C872.144 10.8767 871.993 11.0026 871.877 11.0957C871.734 11.2093 871.568 11.3463 871.377 11.5032C868.659 13.7374 861.042 20 850 20C838.958 20 831.341 13.7374 828.623 11.5032C828.432 11.3463 828.266 11.2093 828.123 11.0957C828.007 11.0026 827.856 10.8767 827.671 10.7227C824.937 8.44538 814.796 0 800 0C785.204 0 775.063 8.44538 772.329 10.7227C772.144 10.8767 771.993 11.0026 771.877 11.0957C771.734 11.2093 771.568 11.3463 771.377 11.5032C768.659 13.7374 761.042 20 750 20C738.958 20 731.341 13.7374 728.623 11.5032C728.432 11.3463 728.266 11.2093 728.123 11.0957C728.007 11.0026 727.856 10.8767 727.671 10.7227C724.937 8.44538 714.796 0 700 0C685.204 0 675.063 8.44538 672.329 10.7227C672.144 10.8767 671.993 11.0026 671.877 11.0957C671.734 11.2093 671.568 11.3463 671.377 11.5032C668.659 13.7374 661.042 20 650 20C638.958 20 631.341 13.7374 628.623 11.5032C628.432 11.3463 628.266 11.2093 628.123 11.0957C628.007 11.0026 627.856 10.8767 627.671 10.7227C624.937 8.44538 614.796 0 600 0C585.204 0 575.063 8.44538 572.329 10.7227C572.144 10.8767 571.993 11.0026 571.877 11.0957C571.734 11.2093 571.568 11.3463 571.377 11.5032C568.659 13.7374 561.042 20 550 20C538.958 20 531.341 13.7374 528.623 11.5032C528.432 11.3463 528.266 11.2093 528.123 11.0957C528.007 11.0026 527.856 10.8767 527.671 10.7227C524.937 8.44538 514.796 0 500 0C485.204 0 475.063 8.44538 472.329 10.7227L472.329 10.723C472.144 10.8769 471.993 11.0026 471.877 11.0957C471.735 11.2093 471.568 11.3463 471.377 11.5032C468.659 13.7374 461.042 20 450 20C438.958 20 431.341 13.7374 428.623 11.5032C428.432 11.3463 428.265 11.2093 428.123 11.0957C428.007 11.0026 427.856 10.8769 427.671 10.723L427.671 10.7227C424.937 8.44538 414.796 0 400 0C385.204 0 375.063 8.44538 372.329 10.7227C372.144 10.8767 371.993 11.0026 371.877 11.0957C371.735 11.2093 371.568 11.3463 371.377 11.5032C368.659 13.7374 361.042 20 350 20C338.958 20 331.341 13.7374 328.623 11.5032C328.432 11.3463 328.265 11.2093 328.123 11.0957C328.007 11.0026 327.856 10.8769 327.671 10.723L327.671 10.7227C324.937 8.44538 314.796 0 300 0C285.204 0 275.063 8.44538 272.329 10.7227L272.329 10.723C272.144 10.8769 271.993 11.0026 271.877 11.0957C271.735 11.2092 271.568 11.3461 271.377 11.5028L271.377 11.5032C268.659 13.7374 261.042 20 250 20C238.958 20 231.34 13.7373 228.623 11.5032C228.432 11.3463 228.265 11.2093 228.123 11.0957C228.007 11.0026 227.856 10.8767 227.671 10.7226C224.936 8.44532 214.796 0 200 0C185.204 0 175.064 8.44532 172.329 10.7226C172.144 10.8767 171.993 11.0026 171.877 11.0957C171.735 11.2092 171.568 11.346 171.378 11.5027L171.377 11.5032C168.66 13.7373 161.042 20 150 20C138.958 20 131.34 13.7373 128.623 11.5032L128.622 11.5027C128.432 11.346 128.265 11.2092 128.123 11.0957C128.007 11.0026 127.856 10.8767 127.671 10.7226C124.936 8.44532 114.796 0 100 0C85.2043 0 75.0635 8.44532 72.329 10.7226C72.144 10.8767 71.9929 11.0026 71.8765 11.0957C71.7347 11.2091 71.5683 11.3459 71.3777 11.5026L71.377 11.5032C68.6595 13.7373 61.042 20 50 20C38.958 20 31.3405 13.7373 28.623 11.5032C28.4321 11.3463 28.2655 11.2093 28.1235 11.0957C28.0071 11.0026 27.856 10.8767 27.671 10.7226C24.9365 8.44532 14.7956 0 0 0V10Z" fill="#FDFDFF"/>
</g>
<defs>
<clipPath id="clip0_193_1491">
<rect width="1000" height="30" fill="white"/>
</clipPath>
</defs>
</svg>
